<?xml version="1.0" encoding="utf-8"?>
<svg version="1.1" xmlns:xlink="http://www.w3.org/1999/xlink" width="59px" height="45px" xmlns="http://www.w3.org/2000/svg">
  <g transform="matrix(1 0 0 1 -221 -682 )">
    <path d="M 238.2 725.562142211876  L 221.631114793324 704.5  L 238.2 683.437857788124  L 238.2 694.65  L 262.8 694.65  L 262.8 683.437857788124  L 279.368885206676 704.5  L 262.8 725.562142211876  L 262.8 714.35  L 238.2 714.35  L 238.2 725.562142211876  Z " fill-rule="nonzero" fill="#f59a23" stroke="none" />
    <path d="M 238.7 727  L 221 704.5  L 238.7 682  L 238.7 694.15  L 262.3 694.15  L 262.3 682  L 280 704.5  L 262.3 727  L 262.3 714.85  L 238.7 714.85  L 238.7 727  Z M 222.262229586649 704.5  L 237.7 724.124284423751  L 237.7 713.85  L 263.3 713.85  L 263.3 724.124284423751  L 278.737770413351 704.5  L 263.3 684.875715576249  L 263.3 695.15  L 237.7 695.15  L 237.7 684.875715576249  L 222.262229586649 704.5  Z " fill-rule="nonzero" fill="#797979" stroke="none" />
  </g>
</svg>