<?xml version="1.0" encoding="utf-8"?>
<svg version="1.1" xmlns:xlink="http://www.w3.org/1999/xlink" width="12px" height="12px" viewBox="548 265.5  12 12" xmlns="http://www.w3.org/2000/svg">
  <path d="M 554 265.5  C 557.36 265.5  560 268.14  560 271.5  C 560 274.86  557.36 277.5  554 277.5  C 550.64 277.5  548 274.86  548 271.5  C 548 268.14  550.64 265.5  554 265.5  Z " fill-rule="nonzero" fill="#f0f0f0" stroke="none" />
  <path d="M 554 266  C 557.08 266  559.5 268.42  559.5 271.5  C 559.5 274.58  557.08 277  554 277  C 550.92 277  548.5 274.58  548.5 271.5  C 548.5 268.42  550.92 266  554 266  Z " stroke-width="1" stroke="#797979" fill="none" />
  <path d="M 554 274.5  C 552.32 274.5  551 273.18  551 271.5  C 551 269.82  552.32 268.5  554 268.5  C 555.68 268.5  557 269.82  557 271.5  C 557 273.18  555.68 274.5  554 274.5  " fill-rule="nonzero" fill="#797979" stroke="none" />
</svg>