<?xml version="1.0" encoding="utf-8"?>
<svg version="1.1" xmlns:xlink="http://www.w3.org/1999/xlink" width="12px" height="12px" viewBox="896 265.5  12 12" xmlns="http://www.w3.org/2000/svg">
  <path d="M 902 265.5  C 905.36 265.5  908 268.14  908 271.5  C 908 274.86  905.36 277.5  902 277.5  C 898.64 277.5  896 274.86  896 271.5  C 896 268.14  898.64 265.5  902 265.5  Z " fill-rule="nonzero" fill="#ffffff" stroke="none" />
  <path d="M 902 266  C 905.08 266  907.5 268.42  907.5 271.5  C 907.5 274.58  905.08 277  902 277  C 898.92 277  896.5 274.58  896.5 271.5  C 896.5 268.42  898.92 266  902 266  Z " stroke-width="1" stroke="#797979" fill="none" />
  <path d="M 902 274.5  C 900.32 274.5  899 273.18  899 271.5  C 899 269.82  900.32 268.5  902 268.5  C 903.68 268.5  905 269.82  905 271.5  C 905 273.18  903.68 274.5  902 274.5  " fill-rule="nonzero" fill="#797979" stroke="none" />
</svg>