<?xml version="1.0" standalone="no"?><!DOCTYPE svg PUBLIC "-//W3C//DTD SVG 1.1//EN" "http://www.w3.org/Graphics/SVG/1.1/DTD/svg11.dtd"><svg t="1542175373562" class="icon" style="" viewBox="0 0 1024 1024" version="1.1" xmlns="http://www.w3.org/2000/svg" p-id="5894" xmlns:xlink="http://www.w3.org/1999/xlink" width="200" height="200"><defs><style type="text/css"></style></defs><path d="M610.042553 1024H413.957447c-185.191489 0-326.808511 0-326.808511-92.595745v-16.340425c0-179.744681 147.06383-321.361702 326.808511-321.361702h190.638298c179.744681 0 326.808511 147.06383 326.80851 321.361702v10.893617c5.446809 98.042553-147.06383 98.042553-321.361702 98.042553z m-196.085106-381.276596c-147.06383 0-272.340426 119.829787-272.340426 266.893617v16.340426c0 38.12766 157.957447 38.12766 272.340426 38.127659h190.638298c92.595745 0 272.340426 0 272.340425-38.127659v-16.340426c0-147.06383-119.829787-266.893617-272.340425-266.893617H413.957447z m87.148936-130.723404C359.489362 512 239.659574 397.617021 239.659574 256S359.489362 0 501.106383 0s261.446809 114.382979 261.446808 256-119.829787 256-261.446808 256zM299.574468 256c0 108.93617 92.595745 201.531915 201.531915 201.531915s201.531915-87.148936 201.531915-201.531915c0-108.93617-92.595745-201.531915-201.531915-201.531915S299.574468 147.06383 299.574468 256z" fill="#429FFF" p-id="5895"></path></svg>