<?xml version="1.0" encoding="utf-8"?>
<svg version="1.1" xmlns:xlink="http://www.w3.org/1999/xlink" width="14px" height="14px" xmlns="http://www.w3.org/2000/svg">
  <g transform="matrix(1 0 0 1 -1154 -473 )">
    <path d="M 1161 473  C 1164.92 473  1168 476.08  1168 480  C 1168 483.92  1164.92 487  1161 487  C 1157.08 487  1154 483.92  1154 480  C 1154 476.08  1157.08 473  1161 473  Z " fill-rule="nonzero" fill="#f59a23" stroke="none" />
    <path d="M 1161 473.5  C 1164.64 473.5  1167.5 476.36  1167.5 480  C 1167.5 483.64  1164.64 486.5  1161 486.5  C 1157.36 486.5  1154.5 483.64  1154.5 480  C 1154.5 476.36  1157.36 473.5  1161 473.5  Z " stroke-width="1" stroke="#797979" fill="none" />
  </g>
</svg>